<svg width="20" height="20" viewBox="0 0 20 20" fill="none" xmlns="http://www.w3.org/2000/svg">
<path fill-rule="evenodd" clip-rule="evenodd" d="M19.1518 17.4727L15.4563 13.801C15.454 13.7986 15.4516 13.7986 15.4492 13.7962C16.4966 12.4045 17.1247 10.6827 17.1247 8.81237C17.1247 4.22988 13.3949 0.5 8.81237 0.5C4.22869 0.5 0.5 4.22988 0.5 8.81237C0.5 13.3949 4.22869 17.1247 8.81237 17.1247C10.6827 17.1247 12.4045 16.4966 13.795 15.4504C13.7974 15.4528 13.7974 15.4551 13.7998 15.4575L17.4727 19.1518C17.7042 19.3833 18.0082 19.4997 18.3122 19.4997C18.6162 19.4997 18.9202 19.3833 19.1518 19.1518C19.6161 18.6875 19.6161 17.937 19.1518 17.4727Z" fill="#EDF7FB"/>
</svg>
