<svg width="17" height="19" viewBox="0 0 17 19" fill="none" xmlns="http://www.w3.org/2000/svg">
<path fill-rule="evenodd" clip-rule="evenodd" d="M13.0617 5.9375H14.2492C14.8548 5.9375 15.3631 6.38875 15.4296 6.99438L16.5922 17.4444C16.6257 17.5525 16.6254 17.6606 16.6251 17.7777C16.625 17.7892 16.625 17.8008 16.625 17.8125C16.625 18.4656 16.1172 19 15.4617 19H1.18672C0.849473 19 0.52766 18.8575 0.302035 18.6081C0.0764104 18.3587 -0.0304646 18.0144 0.00753541 17.6819L1.19504 6.99438C1.26154 6.38875 1.76979 5.9375 2.37422 5.9375H3.56172V4.75C3.56172 2.12562 5.69329 0 8.31172 0C10.9313 0 13.0617 2.12562 13.0617 4.75V5.9375ZM10.6867 5.9375V4.75C10.6867 3.44375 9.62272 2.375 8.31172 2.375C7.00191 2.375 5.93672 3.44375 5.93672 4.75V5.9375H10.6867Z" fill="black"/>
</svg>
