<svg width="25" height="26" viewBox="0 0 25 26" fill="none" xmlns="http://www.w3.org/2000/svg">
<path id="menu" fill-rule="evenodd" clip-rule="evenodd" d="M1.5625 0C0.7 0 0 0.593529 0 1.32484V2.64968C0 3.38099 0.7 3.97452 1.5625 3.97452H23.4375C24.3 3.97452 25 3.38099 25 2.64968V1.32484C25 0.593529 24.3 0 23.4375 0H1.5625ZM1.5625 11.0127C0.7 11.0127 0 11.6063 0 12.3376V13.6624C0 14.3937 0.7 14.9873 1.5625 14.9873H18.1743C19.0368 14.9873 19.7368 14.3937 19.7368 13.6624V12.3376C19.7368 11.6063 19.0368 11.0127 18.1743 11.0127H1.5625ZM0 23.3503C0 22.619 0.7 22.0255 1.5625 22.0255H23.4375C24.3 22.0255 25 22.619 25 23.3503V24.6752C25 25.4065 24.3 26 23.4375 26H1.5625C0.7 26 0 25.4065 0 24.6752V23.3503Z" fill="black"/>
</svg>
