<svg width="199" height="114" viewBox="0 0 199 114" fill="none" xmlns="http://www.w3.org/2000/svg">
<g id="Menu Icons">
<path id="Rectangle" fill-rule="evenodd" clip-rule="evenodd" d="M0 0H199V114H0V0Z" fill="#8AFF8E"/>
<g id="cart">
<path id="Cart" fill-rule="evenodd" clip-rule="evenodd" d="M134.749 54.8125H127.624H126.313L125.389 63.125H136.985L136.061 54.8125H134.749ZM133.562 51.25V52.4375H128.812V51.25C128.812 49.9437 129.877 48.875 131.187 48.875C132.498 48.875 133.562 49.9437 133.562 51.25ZM126.437 52.4375V51.25C126.437 48.6256 128.568 46.5 131.187 46.5C133.806 46.5 135.937 48.6256 135.937 51.25V52.4375H137.124C137.73 52.4375 138.238 52.8888 138.305 53.4944L139.467 63.9444C139.501 64.0525 139.5 64.1606 139.5 64.2777C139.5 64.2892 139.5 64.3008 139.5 64.3125C139.5 64.9656 138.992 65.5 138.337 65.5H124.062C123.724 65.5 123.403 65.3575 123.177 65.1081C122.951 64.8587 122.845 64.5144 122.883 64.1819L124.07 53.4944C124.137 52.8888 124.645 52.4375 125.249 52.4375H126.437Z" fill="black"/>
</g>
<g id="search">
<path id="Search" fill-rule="evenodd" clip-rule="evenodd" d="M65.8124 62.7498C62.5385 62.7498 59.875 60.0863 59.875 56.8124C59.875 53.5385 62.5385 50.875 65.8124 50.875C69.0863 50.875 71.7498 53.5385 71.7498 56.8124C71.7498 60.0863 69.0863 62.7498 65.8124 62.7498ZM76.1518 65.4727L72.4563 61.801C72.454 61.7986 72.4516 61.7986 72.4492 61.7962C73.4966 60.4045 74.1247 58.6827 74.1247 56.8124C74.1247 52.2299 70.3949 48.5 65.8124 48.5C61.2287 48.5 57.5 52.2299 57.5 56.8124C57.5 61.3949 61.2287 65.1247 65.8124 65.1247C67.6827 65.1247 69.4045 64.4966 70.795 63.4504C70.7974 63.4528 70.7974 63.4551 70.7998 63.4575L74.4727 67.1518C74.7042 67.3833 75.0082 67.4997 75.3122 67.4997C75.6162 67.4997 75.9202 67.3833 76.1518 67.1518C76.6161 66.6875 76.6161 65.937 76.1518 65.4727Z" fill="black"/>
</g>
</g>
</svg>
