<svg width="16" height="16" viewBox="0 0 16 16" fill="none" xmlns="http://www.w3.org/2000/svg">
<path fill-rule="evenodd" clip-rule="evenodd" d="M6 0C2.68629 0 0 2.68629 0 6V10C0 13.3137 2.68629 16 6 16H10C13.3137 16 16 13.3137 16 10V6C16 2.68629 13.3137 0 10 0H6ZM9.43861 10.8583C10.6717 10.2376 11.3677 8.89619 11.1652 7.53066C10.9585 6.13633 9.86367 5.04152 8.46934 4.83476C7.10381 4.63227 5.76236 5.32832 5.14172 6.5614C4.52108 7.79447 4.76118 9.28656 5.73731 10.2627C6.71344 11.2388 8.20553 11.4789 9.43861 10.8583Z" fill="#FC896A"/>
</svg>
